<?xml version="1.0" encoding="utf-8"?>
<svg version="1.1" id="Layer_1" xmlns="http://www.w3.org/2000/svg"
	xmlns:xlink="http://www.w3.org/1999/xlink" x="0px" y="0px"
	viewBox="0 0 1360 578" style="enable-background:new 0 0 1360 578;" xml:space="preserve">
<g transform="translate(0.000000,1280.000000) scale(0.100000,-0.100000)">
	<path style="fill:#023E8A;" d="M11488.3,12095.6c-0.9-16.4-7-118.3-13.5-226.4c-6.5-108.2-24.6-405-39.9-659.9
		c-32.3-534.4-36.6-606.9-44.7-740l-6-97.7l6.8-19.9l6.9-20l395.9,136.2l395.9,136.2l84.8-246.4l84.8-246.4l17.5,6
		c18.1,6.2,13.3,3.9,267.1,136.2c172.1,89.8,198.6,103.6,199.4,103.9c0.3,0.1-32,95.1-71.9,211.1l-72.6,210.9l96.2,33.1
		c52.8,18.2,95.9,33.7,95.7,34.4c-0.3,0.8-16,103.1-35,227.6c-31.3,206.1-35,227.8-40.5,243.8l-6.1,17.8l-134.9-46.4l-134.9-46.4
		l-191.3,555.9l-191.3,555.9l-333.2-114.7l-333.4-114.7L11488.3,12095.6z M11983.3,11309.4l79.2-230.3l-95.3-32.8
		c-52.4-18-95.5-32.3-95.7-31.7c-0.5,1.5,31.5,524.7,32.1,524.9C11903.9,11539.7,11939.7,11436.1,11983.3,11309.4z"/>
	<path style="fill:#023E8A;" d="M1585.3,9279.1c-238.6,49.3-332.4,68-335.1,67.2c-5.9-1.7-14.7-8.3-17.7-13.2
		c-2.1-3.3-8.3-32.7-21.7-104.2c-10.2-55-25.5-136.3-33.8-180.7c-14.2-75.9-15-81.4-13-86.8c1.2-3.3,12.5-20.2,25-37.6
		c15.9-22.2,24.5-32.5,28.8-34.8c4.7-2.6,33.7-8.5,126.9-25.6c160.9-29.6,324.6-59.8,469.8-86.5c65.5-12.3,129.7-24,142.7-26.2
		l23.4-4.1l-15.5-72.1c-10-46.3-16.4-72.9-17.9-74.9c-2.1-2.4-4.4-2.4-17.1,0.3c-8,1.7-54.8,10.2-104.2,18.8
		c-77.6,13.7-164.5,29-258.4,45.8c-105.2,18.7-124.1,21-158,20.5c-52.1-1-106.9-14.9-155.7-39.5c-20.2-10.2-61.5-37.7-78.9-52.4
		c-49.5-42.6-81.7-87.2-105.9-147.1c-10.6-26.2-16.2-54.7-101.6-511.7l-22.8-121.6l11.2-74.9c12-81.5,13.3-85.5,25.5-90.6
		c5.5-2.4,44.4-7.6,200.9-27c34-4.1,336.3-41.6,585.2-72.4c101.9-12.7,237.5-29.6,301.3-37.4c124.6-15.4,124.5-15.4,133.9-6.8
		c5.7,5.3,7.3,10.8,47.3,177.6c14.1,59.3,28.8,119.1,32.3,133.2c4.3,16.9,6.3,27.5,5.9,31.6c-1.2,10,2.2,6.1-92.8,110.9l-30.5,33.6
		l-10.5,2.3c-5.8,1.2-33.6,5.6-62,9.8s-100,14.7-159.5,23.6c-59.3,8.8-113.8,17-120.9,18c-15.9,2.4-74.6,11.1-147.5,21.9
		c-63.1,9.5-152.6,22.7-176.1,26.1l-15.9,2.4l10.2,47.5l10.2,47.5l4-0.2c2.1,0.1,32.5-4.5,67.3-9.8c34.9-5.4,95-14.7,133.6-20.7
		c38.7-5.8,96.5-14.7,128.5-19.6c32-4.9,84.1-12.9,115.6-17.8c65.1-9.9,86-11.7,119-10.5c68.5,2.6,129.4,22.5,190.4,61.8
		c43.1,27.7,73.2,55.1,103.1,92.9c34.1,43.3,56.6,88.9,71.6,144.8c10,37.5,53.4,218.4,64.4,268.4c8.9,40.7,11.3,54.4,12,70
		c3.7,67.3-6.2,122-32.5,179.7c-10.3,22.7-33,59.8-49,80.2c-34.6,44.2-84,82.6-133.6,103.7c-9.4,4-49.4,17.9-88.9,30.8l-71.9,23.4
		l-104.8,22.1C1963.8,9200.8,1767.5,9241.6,1585.3,9279.1z"/>
</g>
</svg>